<svg width="89" height="83" viewBox="0 0 89 83" fill="none" xmlns="http://www.w3.org/2000/svg">
<g filter="url(#filter0_d)">
<path d="M59.1839 11.8733L73.8337 34.2623C76.0097 37.5878 73.6239 42 69.6498 42H40.3502C36.3761 42 33.9903 37.5878 36.1663 34.2623L50.8161 11.8733C52.7898 8.85687 57.2102 8.85687 59.1839 11.8733Z" stroke="white" stroke-width="6"/>
</g>
<g filter="url(#filter1_d)">
<path d="M38.1839 22.8733L52.8337 45.2623C55.0097 48.5878 52.6239 53 48.6498 53H19.3502C15.3761 53 12.9903 48.5878 15.1663 45.2623L29.8161 22.8733C31.7898 19.8569 36.2102 19.8569 38.1839 22.8733Z" stroke="#0D9179" stroke-width="6"/>
</g>
<path d="M69.26 54.5H71.26V55.5H69.26V54.5Z" fill="#0D9079"/>
<path d="M76 48H60C59.4696 48 58.9609 48.2107 58.5858 48.5858C58.2107 48.9609 58 49.4696 58 50V62C58 62.5304 58.2107 63.0391 58.5858 63.4142C58.9609 63.7893 59.4696 64 60 64H76C76.5304 64 77.0391 63.7893 77.4142 63.4142C77.7893 63.0391 78 62.5304 78 62V50C78 49.4696 77.7893 48.9609 77.4142 48.5858C77.0391 48.2107 76.5304 48 76 48V48ZM64.4 59L64 57.77H62.06L61.62 59H60L62.2 53H63.82L66 59H64.4ZM72.76 55.5C72.7641 55.6981 72.7281 55.895 72.6541 56.0788C72.5802 56.2627 72.4699 56.4296 72.3298 56.5698C72.1896 56.7099 72.0227 56.8202 71.8388 56.8941C71.655 56.9681 71.4581 57.0041 71.26 57H69.26V59H67.76V53H71.26C71.4581 52.9959 71.655 53.0319 71.8388 53.1059C72.0227 53.1798 72.1896 53.2901 72.3298 53.4302C72.4699 53.5704 72.5802 53.7373 72.6541 53.9212C72.7281 54.105 72.7641 54.3019 72.76 54.5V55.5ZM76 59H74.5V53H76V59Z" fill="#0D9079"/>
<path d="M62.4299 56.7702H63.5899L63.0099 55.1802L62.4299 56.7702Z" fill="#0D9079"/>
<path d="M14.612 73.477C14.612 74.597 14.878 75.479 15.41 76.123C15.942 76.753 16.677 77.068 17.615 77.068C18.021 77.068 18.364 77.054 18.644 77.026C18.938 76.984 19.176 76.942 19.358 76.9V70.6C19.134 70.446 18.833 70.306 18.455 70.18C18.091 70.04 17.699 69.97 17.279 69.97C16.355 69.97 15.676 70.285 15.242 70.915C14.822 71.545 14.612 72.399 14.612 73.477ZM21.899 78.664C21.395 78.818 20.758 78.958 19.988 79.084C19.232 79.21 18.434 79.273 17.594 79.273C16.726 79.273 15.949 79.14 15.263 78.874C14.577 78.608 13.989 78.23 13.499 77.74C13.023 77.236 12.652 76.634 12.386 75.934C12.134 75.22 12.008 74.422 12.008 73.54C12.008 72.672 12.113 71.888 12.323 71.188C12.547 70.474 12.869 69.865 13.289 69.361C13.709 68.857 14.22 68.472 14.822 68.206C15.424 67.926 16.117 67.786 16.901 67.786C17.433 67.786 17.902 67.849 18.308 67.975C18.714 68.101 19.064 68.241 19.358 68.395V63.124L21.899 62.704V78.664ZM24.5178 73.561C24.5178 72.595 24.6578 71.748 24.9378 71.02C25.2318 70.292 25.6168 69.69 26.0928 69.214C26.5688 68.724 27.1148 68.36 27.7308 68.122C28.3468 67.87 28.9768 67.744 29.6208 67.744C31.1328 67.744 32.3088 68.213 33.1488 69.151C34.0028 70.089 34.4298 71.489 34.4298 73.351C34.4298 73.491 34.4228 73.652 34.4088 73.834C34.4088 74.002 34.4018 74.156 34.3878 74.296H27.1428C27.2128 75.178 27.5208 75.864 28.0668 76.354C28.6268 76.83 29.4318 77.068 30.4818 77.068C31.0978 77.068 31.6578 77.012 32.1618 76.9C32.6798 76.788 33.0858 76.669 33.3798 76.543L33.7158 78.622C33.5758 78.692 33.3798 78.769 33.1278 78.853C32.8898 78.923 32.6098 78.986 32.2878 79.042C31.9798 79.112 31.6438 79.168 31.2798 79.21C30.9158 79.252 30.5448 79.273 30.1668 79.273C29.2008 79.273 28.3608 79.133 27.6468 78.853C26.9328 78.559 26.3448 78.16 25.8828 77.656C25.4208 77.138 25.0778 76.536 24.8538 75.85C24.6298 75.15 24.5178 74.387 24.5178 73.561ZM31.8888 72.427C31.8888 72.077 31.8398 71.748 31.7418 71.44C31.6438 71.118 31.4968 70.845 31.3008 70.621C31.1188 70.383 30.8878 70.201 30.6078 70.075C30.3418 69.935 30.0198 69.865 29.6418 69.865C29.2498 69.865 28.9068 69.942 28.6128 70.096C28.3188 70.236 28.0668 70.425 27.8568 70.663C27.6608 70.901 27.5068 71.174 27.3948 71.482C27.2828 71.79 27.2058 72.105 27.1638 72.427H31.8888ZM43.6758 72.091C43.3538 73.323 43.0038 74.527 42.6258 75.703C42.2618 76.865 41.8978 77.964 41.5338 79H39.4548C39.1748 78.356 38.8808 77.621 38.5728 76.795C38.2648 75.969 37.9568 75.087 37.6488 74.149C37.3408 73.211 37.0328 72.224 36.7248 71.188C36.4168 70.152 36.1158 69.095 35.8218 68.017H38.5098C38.6358 68.605 38.7828 69.242 38.9508 69.928C39.1188 70.6 39.2938 71.293 39.4758 72.007C39.6578 72.707 39.8468 73.393 40.0428 74.065C40.2388 74.737 40.4348 75.353 40.6308 75.913C40.8408 75.269 41.0438 74.604 41.2398 73.918C41.4498 73.232 41.6458 72.546 41.8278 71.86C42.0098 71.174 42.1778 70.509 42.3318 69.865C42.4998 69.207 42.6468 68.591 42.7728 68.017H44.7258C44.8518 68.591 44.9918 69.207 45.1458 69.865C45.2998 70.509 45.4608 71.174 45.6288 71.86C45.8108 72.546 45.9998 73.232 46.1958 73.918C46.4058 74.604 46.6158 75.269 46.8258 75.913C47.0078 75.353 47.1968 74.737 47.3928 74.065C47.5888 73.393 47.7778 72.707 47.9598 72.007C48.1558 71.293 48.3378 70.6 48.5058 69.928C48.6738 69.242 48.8208 68.605 48.9468 68.017H51.5718C51.2778 69.095 50.9768 70.152 50.6688 71.188C50.3608 72.224 50.0528 73.211 49.7448 74.149C49.4368 75.087 49.1288 75.969 48.8208 76.795C48.5128 77.621 48.2118 78.356 47.9178 79H45.8598C45.4958 77.964 45.1178 76.865 44.7258 75.703C44.3478 74.527 43.9978 73.323 43.6758 72.091ZM52.9006 73.561C52.9006 72.595 53.0406 71.748 53.3206 71.02C53.6146 70.292 53.9996 69.69 54.4756 69.214C54.9516 68.724 55.4976 68.36 56.1136 68.122C56.7296 67.87 57.3596 67.744 58.0036 67.744C59.5156 67.744 60.6916 68.213 61.5316 69.151C62.3856 70.089 62.8126 71.489 62.8126 73.351C62.8126 73.491 62.8056 73.652 62.7916 73.834C62.7916 74.002 62.7846 74.156 62.7706 74.296H55.5256C55.5956 75.178 55.9036 75.864 56.4496 76.354C57.0096 76.83 57.8146 77.068 58.8646 77.068C59.4806 77.068 60.0406 77.012 60.5446 76.9C61.0626 76.788 61.4686 76.669 61.7626 76.543L62.0986 78.622C61.9586 78.692 61.7626 78.769 61.5106 78.853C61.2726 78.923 60.9926 78.986 60.6706 79.042C60.3626 79.112 60.0266 79.168 59.6626 79.21C59.2986 79.252 58.9276 79.273 58.5496 79.273C57.5836 79.273 56.7436 79.133 56.0296 78.853C55.3156 78.559 54.7276 78.16 54.2656 77.656C53.8036 77.138 53.4606 76.536 53.2366 75.85C53.0126 75.15 52.9006 74.387 52.9006 73.561ZM60.2716 72.427C60.2716 72.077 60.2226 71.748 60.1246 71.44C60.0266 71.118 59.8796 70.845 59.6836 70.621C59.5016 70.383 59.2706 70.201 58.9906 70.075C58.7246 69.935 58.4026 69.865 58.0246 69.865C57.6326 69.865 57.2896 69.942 56.9956 70.096C56.7016 70.236 56.4496 70.425 56.2396 70.663C56.0436 70.901 55.8896 71.174 55.7776 71.482C55.6656 71.79 55.5886 72.105 55.5466 72.427H60.2716ZM72.7936 73.477C72.7936 72.399 72.5766 71.545 72.1426 70.915C71.7226 70.285 71.0506 69.97 70.1266 69.97C69.7066 69.97 69.3076 70.033 68.9296 70.159C68.5656 70.285 68.2716 70.425 68.0476 70.579V76.9C68.2296 76.942 68.4606 76.984 68.7406 77.026C69.0346 77.054 69.3846 77.068 69.7906 77.068C70.7286 77.068 71.4636 76.753 71.9956 76.123C72.5276 75.479 72.7936 74.597 72.7936 73.477ZM75.3976 73.519C75.3976 74.401 75.2646 75.199 74.9986 75.913C74.7466 76.613 74.3756 77.215 73.8856 77.719C73.4096 78.223 72.8286 78.608 72.1426 78.874C71.4566 79.14 70.6796 79.273 69.8116 79.273C68.9716 79.273 68.1666 79.21 67.3966 79.084C66.6406 78.958 66.0106 78.818 65.5066 78.664V63.124L68.0476 62.704V68.395C68.3416 68.241 68.6986 68.101 69.1186 67.975C69.5526 67.849 70.0286 67.786 70.5466 67.786C71.3166 67.786 72.0026 67.926 72.6046 68.206C73.2206 68.472 73.7316 68.857 74.1376 69.361C74.5436 69.865 74.8516 70.474 75.0616 71.188C75.2856 71.888 75.3976 72.665 75.3976 73.519Z" fill="#0D9179"/>
<defs>
<filter id="filter0_d" x="28.3369" y="6.61084" width="53.3262" height="46.389" filterUnits="userSpaceOnUse" color-interpolation-filters="sRGB">
<feFlood flood-opacity="0" result="BackgroundImageFix"/>
<feColorMatrix in="SourceAlpha" type="matrix" values="0 0 0 0 0 0 0 0 0 0 0 0 0 0 0 0 0 0 127 0"/>
<feOffset dy="4"/>
<feGaussianBlur stdDeviation="2"/>
<feColorMatrix type="matrix" values="0 0 0 0 0 0 0 0 0 0 0 0 0 0 0 0 0 0 0.25 0"/>
<feBlend mode="normal" in2="BackgroundImageFix" result="effect1_dropShadow"/>
<feBlend mode="normal" in="SourceGraphic" in2="effect1_dropShadow" result="shape"/>
</filter>
<filter id="filter1_d" x="7.33691" y="17.6108" width="53.3262" height="46.389" filterUnits="userSpaceOnUse" color-interpolation-filters="sRGB">
<feFlood flood-opacity="0" result="BackgroundImageFix"/>
<feColorMatrix in="SourceAlpha" type="matrix" values="0 0 0 0 0 0 0 0 0 0 0 0 0 0 0 0 0 0 127 0"/>
<feOffset dy="4"/>
<feGaussianBlur stdDeviation="2"/>
<feColorMatrix type="matrix" values="0 0 0 0 0 0 0 0 0 0 0 0 0 0 0 0 0 0 0.25 0"/>
<feBlend mode="normal" in2="BackgroundImageFix" result="effect1_dropShadow"/>
<feBlend mode="normal" in="SourceGraphic" in2="effect1_dropShadow" result="shape"/>
</filter>
</defs>
</svg>
